<?xml version="1.0" standalone="no"?>
<!DOCTYPE svg PUBLIC "-//W3C//DTD SVG 20010904//EN"
 "http://www.w3.org/TR/2001/REC-SVG-20010904/DTD/svg10.dtd">
<svg version="1.0" xmlns="http://www.w3.org/2000/svg"
 width="309.000000pt" height="357.000000pt" viewBox="0 0 309.000000 357.000000"
 preserveAspectRatio="xMidYMid meet">

<g transform="translate(0.000000,357.000000) scale(0.100000,-0.100000)"
fill="#000000" stroke="none">
<path d="M558 3310 c-41 -12 -69 -36 -100 -81 l-28 -42 0 -1317 0 -1316 30
-48 c22 -33 43 -53 75 -67 43 -19 71 -19 1087 -17 1024 3 1044 3 1074 23 17
11 44 35 60 54 l29 35 3 1326 2 1327 -22 33 c-13 18 -40 47 -61 64 l-39 31
-1041 2 c-573 1 -1054 -2 -1069 -7z m2133 -43 c18 -12 44 -40 56 -62 21 -38
23 -51 23 -237 l0 -198 -650 0 -650 0 0 217 c0 187 -2 219 -17 235 -15 17 -42
18 -453 18 -395 0 -439 -2 -451 -17 -11 -12 -15 -68 -17 -235 l-3 -218 -35 0
c-18 0 -34 -4 -34 -10 0 -5 429 -8 1155 -7 l1155 2 0 -1083 c0 -952 -2 -1087
-15 -1119 -30 -72 -72 -100 -155 -105 l-53 -3 -17 70 c-19 80 -50 154 -72 173
-12 9 -190 12 -839 10 l-824 -3 -28 -52 c-15 -28 -35 -84 -45 -124 -20 -81
-22 -82 -110 -72 -65 7 -109 36 -139 88 l-23 40 0 1295 0 1295 23 40 c12 22
38 50 56 62 l34 23 1047 0 1047 0 34 -23z m-1249 -54 c16 -15 18 -35 18 -230
l0 -213 -459 0 -460 0 1 209 c0 167 3 213 14 230 15 21 20 21 441 21 383 0
428 -2 445 -17z m1017 -2549 c22 -27 71 -170 71 -205 0 -19 -15 -19 -899 -19
-495 0 -902 4 -905 8 -13 22 41 185 76 230 8 9 185 12 823 12 l814 0 20 -26z"/>
<path d="M2382 3185 c-105 -65 -109 -199 -9 -279 34 -27 46 -31 102 -31 49 0
71 5 92 21 47 35 73 82 73 133 0 136 -146 225 -258 156z m155 -6 c52 -25 83
-78 83 -142 0 -113 -138 -187 -230 -124 -55 37 -75 72 -75 131 1 65 31 110 89
137 53 24 80 24 133 -2z"/>
<path d="M1900 3178 c-58 -40 -75 -72 -75 -141 0 -50 5 -68 25 -95 54 -72 136
-95 215 -59 163 74 101 316 -81 317 -37 0 -60 -6 -84 -22z m177 -16 c111 -79
62 -261 -74 -279 -81 -11 -161 56 -170 141 -7 56 27 120 77 147 46 25 125 21
167 -9z"/>
<path d="M1460 2596 c-118 -27 -216 -71 -309 -139 -322 -237 -419 -660 -234
-1020 39 -77 64 -109 147 -192 82 -81 118 -109 191 -147 135 -70 209 -89 350
-94 124 -3 221 10 300 42 95 39 135 58 135 66 0 4 3 7 8 7 18 -3 30 3 59 29
17 15 47 40 66 56 20 17 33 34 30 39 -3 6 -1 7 5 3 11 -7 79 70 75 85 -2 5 1
9 6 9 10 0 42 47 45 65 1 7 7 19 13 26 25 32 45 85 69 186 23 94 26 122 21
218 -3 66 -14 139 -26 183 -81 282 -312 505 -593 572 -96 23 -268 26 -358 6z
m328 -12 c293 -60 520 -274 608 -574 15 -51 19 -96 19 -205 -1 -132 -3 -146
-33 -235 -45 -131 -101 -221 -196 -316 -194 -194 -453 -271 -725 -214 -397 81
-669 460 -620 862 12 104 56 234 110 324 44 73 157 189 234 240 177 117 397
160 603 118z"/>
<path d="M1478 2386 c-70 -20 -166 -69 -223 -113 -62 -48 -144 -155 -170 -223
-14 -36 -26 -52 -43 -57 l-22 -5 2 -212 3 -211 34 -10 c24 -7 44 -25 71 -65
114 -168 269 -257 465 -267 178 -10 326 47 450 171 186 187 228 457 107 690
-67 129 -173 223 -317 281 -61 25 -85 29 -190 31 -79 2 -136 -1 -167 -10z
m251 -7 c107 -19 225 -81 302 -159 163 -165 215 -382 143 -597 -46 -136 -180
-283 -309 -338 -126 -53 -274 -65 -390 -31 -127 37 -252 127 -326 234 -31 43
-30 46 9 42 21 -1 22 2 22 72 l0 72 34 -71 c39 -80 109 -156 183 -198 67 -37
89 -41 96 -16 3 12 1 21 -5 21 -5 0 -2 7 6 16 26 25 19 42 -27 62 -60 27 -128
96 -162 165 -59 122 -39 284 46 381 l42 48 -37 36 -37 37 -37 -41 c-20 -23
-51 -69 -69 -103 -29 -57 -32 -60 -35 -34 -3 25 -7 28 -45 31 -25 2 -43 8 -43
15 0 23 75 140 120 186 82 85 175 136 300 166 71 17 137 18 219 4z m-453 -330
c-9 -19 -15 -29 -16 -22 0 15 22 64 27 60 2 -2 -3 -19 -11 -38z m34 1 c0 -5
-4 -10 -10 -10 -5 0 -10 5 -10 10 0 6 5 10 10 10 6 0 10 -4 10 -10z m-158
-270 l0 -215 -47 2 c-80 3 -75 -11 -75 212 l0 200 38 6 c20 4 42 8 47 10 35
12 36 3 37 -215z m125 -132 c-3 -8 -6 -5 -6 6 -1 11 2 17 5 13 3 -3 4 -12 1
-19z m28 -78 c3 -5 1 -10 -4 -10 -6 0 -11 5 -11 10 0 6 2 10 4 10 3 0 8 -4 11
-10z m72 -86 c-3 -3 -12 -4 -19 -1 -8 3 -5 6 6 6 11 1 17 -2 13 -5z"/>
<path d="M736 2991 c-7 -11 10 -105 24 -131 10 -19 22 -20 271 -20 l260 0 13
33 c8 17 16 52 17 77 l4 45 -292 3 c-167 1 -294 -2 -297 -7z m574 -33 c0 -13
-5 -40 -11 -60 l-10 -38 -258 0 -259 0 -11 31 c-6 18 -11 45 -11 60 l0 29 280
0 280 0 0 -22z"/>
</g>
</svg>
