<?xml version="1.0" encoding="UTF-8"?>
<!DOCTYPE svg PUBLIC "-//W3C//DTD SVG 1.1//EN" "http://www.w3.org/Graphics/SVG/1.1/DTD/svg11.dtd">
<svg xmlns="http://www.w3.org/2000/svg" version="1.1" width="500px" height="500px" style="shape-rendering:geometricPrecision; text-rendering:geometricPrecision; image-rendering:optimizeQuality; fill-rule:evenodd; clip-rule:evenodd" xmlns:xlink="http://www.w3.org/1999/xlink">
<g><path style="opacity:0.897" fill="#010203" d="M 330.5,266.5 C 327.5,266.5 324.5,266.5 321.5,266.5C 332.596,231.603 324.596,202.103 297.5,178C 271.424,159.122 243.758,156.456 214.5,170C 178.019,192.83 166.019,224.996 178.5,266.5C 175.5,266.5 172.5,266.5 169.5,266.5C 159.14,230.771 167.14,199.938 193.5,174C 220.267,152.517 249.933,147.517 282.5,159C 320.452,176.726 337.952,206.56 335,248.5C 334.32,254.744 332.82,260.744 330.5,266.5 Z"/></g>
<g><path style="opacity:1" fill="#43b4cf" d="M 321.5,266.5 C 317.958,266.813 314.625,266.479 311.5,265.5C 323.835,230.013 314.835,201.513 284.5,180C 246.99,162.252 216.157,170.085 192,203.5C 180.807,223.622 179.64,244.289 188.5,265.5C 185.375,266.479 182.042,266.813 178.5,266.5C 166.019,224.996 178.019,192.83 214.5,170C 243.758,156.456 271.424,159.122 297.5,178C 324.596,202.103 332.596,231.603 321.5,266.5 Z"/></g>
<g><path style="opacity:1" fill="#fcfcfc" d="M 311.5,265.5 C 303.586,266.467 295.586,266.801 287.5,266.5C 287.831,241.661 287.498,216.994 286.5,192.5C 262.167,191.167 237.833,191.167 213.5,192.5C 212.502,216.994 212.169,241.661 212.5,266.5C 204.414,266.801 196.414,266.467 188.5,265.5C 179.64,244.289 180.807,223.622 192,203.5C 216.157,170.085 246.99,162.252 284.5,180C 314.835,201.513 323.835,230.013 311.5,265.5 Z"/></g>
<g><path style="opacity:1" fill="#000000" d="M 286.5,192.5 C 286.831,217.339 286.498,242.006 285.5,266.5C 285.83,247.659 285.497,228.993 284.5,210.5C 261.5,210.5 238.5,210.5 215.5,210.5C 214.668,228.996 214.168,247.662 214,266.5C 213.5,241.836 213.333,217.169 213.5,192.5C 237.833,191.167 262.167,191.167 286.5,192.5 Z"/></g>
<g><path style="opacity:1" fill="#ececec" d="M 284.5,193.5 C 284.5,198.5 284.5,203.5 284.5,208.5C 261.5,208.5 238.5,208.5 215.5,208.5C 215.5,203.5 215.5,198.5 215.5,193.5C 238.5,192.167 261.5,192.167 284.5,193.5 Z"/></g>
<g><path style="opacity:1" fill="#bfbfbf" d="M 286.5,192.5 C 287.498,216.994 287.831,241.661 287.5,266.5C 286.833,267.833 286.167,267.833 285.5,266.5C 286.498,242.006 286.831,217.339 286.5,192.5 Z"/></g>
<g><path style="opacity:1" fill="#7e7e7e" d="M 215.5,193.5 C 215.5,198.5 215.5,203.5 215.5,208.5C 238.5,208.5 261.5,208.5 284.5,208.5C 284.5,203.5 284.5,198.5 284.5,193.5C 285.488,198.64 285.821,203.974 285.5,209.5C 261.833,209.5 238.167,209.5 214.5,209.5C 214.179,203.974 214.512,198.64 215.5,193.5 Z"/></g>
<g><path style="opacity:1" fill="#565656" d="M 256.5,204.5 C 258.604,204.201 260.604,204.534 262.5,205.5C 261.5,205.833 260.5,206.167 259.5,206.5C 257.97,206.36 256.97,205.693 256.5,204.5 Z"/></g>
<g><path style="opacity:1" fill="#7b7b7b" d="M 254.5,199.5 C 256.568,200.865 258.901,201.865 261.5,202.5C 259.141,203.714 256.808,203.714 254.5,202.5C 254.5,201.5 254.5,200.5 254.5,199.5 Z"/></g>
<g><path style="opacity:1" fill="#191919" d="M 254.5,199.5 C 254.5,200.5 254.5,201.5 254.5,202.5C 252.947,205.254 250.614,206.087 247.5,205C 245.556,202.847 245.056,200.347 246,197.5C 249.782,194.599 252.615,195.266 254.5,199.5 Z"/></g>
<g><path style="opacity:1" fill="#131313" d="M 219.5,201.5 C 225.509,201.334 231.509,201.501 237.5,202C 238.833,203.667 238.833,205.333 237.5,207C 231.5,207.667 225.5,207.667 219.5,207C 218.248,205.172 218.248,203.339 219.5,201.5 Z"/></g>
<g><path style="opacity:1" fill="#fefffe" d="M 220.5,203.5 C 225.875,203.172 231.208,203.505 236.5,204.5C 233.833,204.833 231.167,205.167 228.5,205.5C 225.41,205.478 222.743,204.812 220.5,203.5 Z"/></g>
<g><path style="opacity:1" fill="#e3e3e3" d="M 248.5,197.5 C 252.068,197.759 253.401,199.759 252.5,203.5C 246.541,204.222 245.207,202.222 248.5,197.5 Z"/></g>
<g><path style="opacity:1" fill="#000000" d="M 265.5,195.5 C 271.167,195.5 276.833,195.5 282.5,195.5C 282.5,198.167 282.5,200.833 282.5,203.5C 276.833,203.5 271.167,203.5 265.5,203.5C 265.5,200.833 265.5,198.167 265.5,195.5 Z"/></g>
<g><path style="opacity:0.994" fill="#ebf0f2" d="M 213.5,192.5 C 213.333,217.169 213.5,241.836 214,266.5C 214.168,247.662 214.668,228.996 215.5,210.5C 215.5,229.167 215.5,247.833 215.5,266.5C 222.022,266.823 228.355,266.49 234.5,265.5C 235.167,265.833 235.833,266.167 236.5,266.5C 245.167,267.833 253.833,267.833 262.5,266.5C 263.609,266.443 264.609,266.11 265.5,265.5C 271.645,266.49 277.978,266.823 284.5,266.5C 284.5,247.833 284.5,229.167 284.5,210.5C 285.497,228.993 285.83,247.659 285.5,266.5C 286.167,267.833 286.833,267.833 287.5,266.5C 295.586,266.801 303.586,266.467 311.5,265.5C 314.625,266.479 317.958,266.813 321.5,266.5C 324.5,266.5 327.5,266.5 330.5,266.5C 371.167,266.5 411.833,266.5 452.5,266.5C 452.5,292.5 452.5,318.5 452.5,344.5C 422.167,344.5 391.833,344.5 361.5,344.5C 358.592,343.841 358.258,343.007 360.5,342C 359.552,341.517 358.552,341.351 357.5,341.5C 357.5,342.5 357.5,343.5 357.5,344.5C 355.167,344.5 352.833,344.5 350.5,344.5C 350.167,344.5 349.833,344.5 349.5,344.5C 344.742,343.879 340.075,343.879 335.5,344.5C 334.167,344.5 332.833,344.5 331.5,344.5C 327.983,344.213 324.316,344.213 320.5,344.5C 319.099,341.201 317.265,340.868 315,343.5C 314.612,342.572 313.945,341.905 313,341.5C 311.85,342.424 310.85,342.424 310,341.5C 309.517,342.448 309.351,343.448 309.5,344.5C 308.833,344.5 308.167,344.5 307.5,344.5C 305.833,344.5 304.167,344.5 302.5,344.5C 298.284,343.977 294.118,343.977 290,344.5C 288.775,344.138 287.609,343.638 286.5,343C 288.932,341.913 288.598,341.413 285.5,341.5C 285.737,342.791 285.404,343.791 284.5,344.5C 283.167,344.5 281.833,344.5 280.5,344.5C 277.68,344.752 275.014,344.252 272.5,343C 274.932,341.913 274.598,341.413 271.5,341.5C 271.737,342.791 271.404,343.791 270.5,344.5C 270.167,344.5 269.833,344.5 269.5,344.5C 267.833,343.167 266.167,343.167 264.5,344.5C 263.833,344.5 263.167,344.5 262.5,344.5C 261.5,344.5 260.5,344.5 259.5,344.5C 259.167,344.5 258.833,344.5 258.5,344.5C 256.5,344.5 254.5,344.5 252.5,344.5C 251.833,344.5 251.167,344.5 250.5,344.5C 249.5,344.5 248.5,344.5 247.5,344.5C 246.833,344.5 246.167,344.5 245.5,344.5C 244.5,344.5 243.5,344.5 242.5,344.5C 241.167,344.5 239.833,344.5 238.5,344.5C 232.833,344.5 227.167,344.5 221.5,344.5C 221.167,344.5 220.833,344.5 220.5,344.5C 219.167,344.5 217.833,344.5 216.5,344.5C 215.167,344.5 213.833,344.5 212.5,344.5C 209.315,344.172 205.982,344.172 202.5,344.5C 202.167,344.5 201.833,344.5 201.5,344.5C 195.735,343.677 189.735,343.677 183.5,344.5C 182.5,344.5 181.5,344.5 180.5,344.5C 174.5,344.5 168.5,344.5 162.5,344.5C 161.833,344.5 161.167,344.5 160.5,344.5C 159.5,344.5 158.5,344.5 157.5,344.5C 156.5,344.5 155.5,344.5 154.5,344.5C 150.872,344.353 147.205,344.353 143.5,344.5C 142.833,344.5 142.167,344.5 141.5,344.5C 140.833,344.5 140.167,344.5 139.5,344.5C 108.833,344.5 78.1667,344.5 47.5,344.5C 47.5,318.5 47.5,292.5 47.5,266.5C 88.1667,266.5 128.833,266.5 169.5,266.5C 172.5,266.5 175.5,266.5 178.5,266.5C 182.042,266.813 185.375,266.479 188.5,265.5C 196.414,266.467 204.414,266.801 212.5,266.5C 212.169,241.661 212.502,216.994 213.5,192.5 Z"/></g>
<g><path style="opacity:1" fill="#fafafa" d="M 215.5,210.5 C 238.5,210.5 261.5,210.5 284.5,210.5C 284.5,229.167 284.5,247.833 284.5,266.5C 277.978,266.823 271.645,266.49 265.5,265.5C 270.974,261.692 274.974,256.692 277.5,250.5C 278.914,249.376 280.414,248.376 282,247.5C 282.667,243.167 282.667,238.833 282,234.5C 277.826,231.832 274.826,228.165 273,223.5C 260.925,211.161 247.425,209.328 232.5,218C 220.459,229.455 218.292,242.622 226,257.5C 228.375,260.71 231.208,263.376 234.5,265.5C 228.355,266.49 222.022,266.823 215.5,266.5C 215.5,247.833 215.5,229.167 215.5,210.5 Z"/></g>
<g><path style="opacity:1" fill="#131313" d="M 265.5,265.5 C 264.609,266.11 263.609,266.443 262.5,266.5C 259.287,266.81 256.287,266.477 253.5,265.5C 267.361,262.97 274.361,254.636 274.5,240.5C 273.429,225.263 265.263,217.263 250,216.5C 231.219,218.369 223.219,228.702 226,247.5C 228.723,257.056 234.889,263.056 244.5,265.5C 242.052,266.473 239.385,266.806 236.5,266.5C 235.833,266.167 235.167,265.833 234.5,265.5C 231.208,263.376 228.375,260.71 226,257.5C 218.292,242.622 220.459,229.455 232.5,218C 247.425,209.328 260.925,211.161 273,223.5C 274.826,228.165 277.826,231.832 282,234.5C 282.667,238.833 282.667,243.167 282,247.5C 280.414,248.376 278.914,249.376 277.5,250.5C 274.974,256.692 270.974,261.692 265.5,265.5 Z"/></g>
<g><path style="opacity:1" fill="#f5f5f5" d="M 253.5,265.5 C 250.5,265.5 247.5,265.5 244.5,265.5C 234.889,263.056 228.723,257.056 226,247.5C 223.219,228.702 231.219,218.369 250,216.5C 265.263,217.263 273.429,225.263 274.5,240.5C 274.361,254.636 267.361,262.97 253.5,265.5 Z"/></g>
<g><path style="opacity:1" fill="#1b1b1b" d="M 244.5,221.5 C 262,220.832 270.166,229.165 269,246.5C 263.507,258.662 254.341,262.829 241.5,259C 230.189,251.401 227.689,241.567 234,229.5C 236.94,225.963 240.44,223.297 244.5,221.5 Z"/></g>
<g><path style="opacity:1" fill="#f4f4f4" d="M 251.5,243.5 C 253.937,244.217 256.27,245.217 258.5,246.5C 257.5,247.167 256.5,247.833 255.5,248.5C 256.965,250.599 258.299,252.766 259.5,255C 254.829,260 250.829,259.5 247.5,253.5C 245.465,255.912 244.465,255.245 244.5,251.5C 244.667,250.167 244.833,248.833 245,247.5C 249.033,249.31 251.2,247.976 251.5,243.5 Z"/></g>
<g><path style="opacity:1" fill="#bcbcbc" d="M 236.5,237.5 C 237.552,237.351 238.552,237.517 239.5,238C 237.431,239.874 235.098,240.874 232.5,241C 233.731,239.595 235.064,238.429 236.5,237.5 Z"/></g>
<g><path style="opacity:1" fill="#4e4e4e" d="M 244.5,229.5 C 245.974,230.436 246.974,231.77 247.5,233.5C 246.957,233.56 246.624,233.893 246.5,234.5C 247.167,235.833 247.833,237.167 248.5,238.5C 248.154,239.696 247.654,239.696 247,238.5C 245.545,235.088 243.712,231.921 241.5,229C 242.577,228.53 243.577,228.697 244.5,229.5 Z"/></g>
<g><path style="opacity:1" fill="#e8e8e8" d="M 238.5,230.5 C 240.017,230.511 241.184,231.177 242,232.5C 243.047,234.762 244.213,236.929 245.5,239C 242.206,242.414 238.373,245.247 234,247.5C 232.422,246.289 232.255,244.955 233.5,243.5C 236.371,241.903 239.037,240.07 241.5,238C 241.07,236.566 240.236,235.399 239,234.5C 236.828,235.585 234.828,236.919 233,238.5C 232.48,236.711 232.813,235.044 234,233.5C 235.652,232.601 237.152,231.601 238.5,230.5 Z"/></g>
<g><path style="opacity:1" fill="#ececec" d="M 247.5,233.5 C 246.974,231.77 245.974,230.436 244.5,229.5C 244.585,228.005 243.919,227.005 242.5,226.5C 240.76,228.211 238.76,229.044 236.5,229C 249.12,219.908 259.287,222.075 267,235.5C 268.769,242.789 267.102,249.123 262,254.5C 260.471,253.271 259.304,251.771 258.5,250C 260.181,248.055 260.848,246.055 260.5,244C 257.068,243.884 254.068,242.717 251.5,240.5C 249.717,242.023 249.051,244.023 249.5,246.5C 247.139,246.326 244.806,245.993 242.5,245.5C 244.063,258.221 241.396,259.555 234.5,249.5C 239.532,245.97 244.699,242.636 250,239.5C 250.028,237.213 249.195,235.213 247.5,233.5 Z"/></g>
<g><path style="opacity:1" fill="#2c2c2c" d="M 263.5,241.5 C 265.874,243.401 266.041,245.735 264,248.5C 263.5,248 263,247.5 262.5,247C 263.406,245.301 263.739,243.467 263.5,241.5 Z"/></g>
<g><path style="opacity:1" fill="#1b1b1b" d="M 263.5,235.5 C 265.465,235.948 265.798,236.948 264.5,238.5C 263.614,237.675 263.281,236.675 263.5,235.5 Z"/></g>
<g><path style="opacity:1" fill="#404040" d="M 249.5,225.5 C 251.199,225.34 252.866,225.506 254.5,226C 255.352,228.362 256.852,230.195 259,231.5C 259.538,233.473 258.704,234.473 256.5,234.5C 255.328,234.081 254.328,233.415 253.5,232.5C 250.295,233.725 248.295,232.558 247.5,229C 247.978,227.697 248.645,226.531 249.5,225.5 Z"/></g>
<g><path style="opacity:1" fill="#ebebeb" d="M 255.5,231.5 C 257.337,231.639 257.67,232.306 256.5,233.5C 255.702,233.043 255.369,232.376 255.5,231.5 Z"/></g>
<g><path style="opacity:1" fill="#f0f0f0" d="M 249.5,227.5 C 251.989,227.539 253.489,228.539 254,230.5C 250.85,232.161 249.35,231.161 249.5,227.5 Z"/></g>
<g><path style="opacity:1" fill="#9a9c9d" d="M 244.5,265.5 C 247.5,265.5 250.5,265.5 253.5,265.5C 256.287,266.477 259.287,266.81 262.5,266.5C 253.833,267.833 245.167,267.833 236.5,266.5C 239.385,266.806 242.052,266.473 244.5,265.5 Z"/></g>
<g><path style="opacity:1" fill="#939697" d="M 263.5,294.5 C 269.319,293.347 275.319,293.181 281.5,294C 282.056,294.383 282.389,294.883 282.5,295.5C 277.562,294.608 272.562,294.274 267.5,294.5C 266.167,294.5 264.833,294.5 263.5,294.5 Z"/></g>
<g><path style="opacity:1" fill="#050505" d="M 72.5,294.5 C 72.5,300.5 72.5,306.5 72.5,312.5C 77.5,312.5 82.5,312.5 87.5,312.5C 87.5,313.833 87.5,315.167 87.5,316.5C 80.8333,316.5 74.1667,316.5 67.5,316.5C 67.5,309.167 67.5,301.833 67.5,294.5C 69.1667,294.5 70.8333,294.5 72.5,294.5 Z"/></g>
<g><path style="opacity:1" fill="#161717" d="M 122.5,314.5 C 121.448,316.256 119.781,316.923 117.5,316.5C 117.586,315.504 117.252,314.671 116.5,314C 112.167,313.333 107.833,313.333 103.5,314C 102.748,314.671 102.414,315.504 102.5,316.5C 100.219,316.923 98.5521,316.256 97.5,314.5C 99.7725,307.952 102.606,301.619 106,295.5C 108.667,294.167 111.333,294.167 114,295.5C 116.362,302.101 119.195,308.434 122.5,314.5 Z"/></g>
<g><path style="opacity:1" fill="#727576" d="M 136.5,294.5 C 134.833,294.5 133.167,294.5 131.5,294.5C 131.5,299.833 131.5,305.167 131.5,310.5C 130.511,305.025 130.178,299.358 130.5,293.5C 132.735,293.205 134.735,293.539 136.5,294.5 Z"/></g>
<g><path style="opacity:1" fill="#0d0e0e" d="M 136.5,294.5 C 136.334,299.511 136.501,304.511 137,309.5C 140.578,311.766 144.412,312.1 148.5,310.5C 149.495,305.208 149.828,299.875 149.5,294.5C 151.167,294.5 152.833,294.5 154.5,294.5C 154.5,300.167 154.5,305.833 154.5,311.5C 153.527,313.139 152.194,314.473 150.5,315.5C 146.215,316.295 141.881,316.628 137.5,316.5C 134.522,315.522 132.522,313.522 131.5,310.5C 131.5,305.167 131.5,299.833 131.5,294.5C 133.167,294.5 134.833,294.5 136.5,294.5 Z"/></g>
<g><path style="opacity:1" fill="#67696a" d="M 149.5,294.5 C 151.265,293.539 153.265,293.205 155.5,293.5C 155.823,299.69 155.49,305.69 154.5,311.5C 154.5,305.833 154.5,300.167 154.5,294.5C 152.833,294.5 151.167,294.5 149.5,294.5 Z"/></g>
<g><path style="opacity:1" fill="#7a7d7e" d="M 171.5,294.5 C 169.5,294.5 167.5,294.5 165.5,294.5C 165.5,301.833 165.5,309.167 165.5,316.5C 167.167,316.5 168.833,316.5 170.5,316.5C 170.173,311.786 170.507,307.12 171.5,302.5C 172.522,302.855 173.189,303.522 173.5,304.5C 171.57,308.373 170.903,312.706 171.5,317.5C 169.167,317.5 166.833,317.5 164.5,317.5C 164.5,309.5 164.5,301.5 164.5,293.5C 167.059,293.198 169.393,293.532 171.5,294.5 Z"/></g>
<g><path style="opacity:1" fill="#0a0a0b" d="M 171.5,294.5 C 174.486,298.817 177.82,302.817 181.5,306.5C 181.369,307.376 181.702,308.043 182.5,308.5C 183.493,303.88 183.827,299.214 183.5,294.5C 185.167,294.5 186.833,294.5 188.5,294.5C 188.5,301.833 188.5,309.167 188.5,316.5C 186.5,316.5 184.5,316.5 182.5,316.5C 179.5,312.5 176.5,308.5 173.5,304.5C 173.189,303.522 172.522,302.855 171.5,302.5C 170.507,307.12 170.173,311.786 170.5,316.5C 168.833,316.5 167.167,316.5 165.5,316.5C 165.5,309.167 165.5,301.833 165.5,294.5C 167.5,294.5 169.5,294.5 171.5,294.5 Z"/></g>
<g><path style="opacity:1" fill="#8a8d8e" d="M 183.5,294.5 C 183.827,299.214 183.493,303.88 182.5,308.5C 181.702,308.043 181.369,307.376 181.5,306.5C 182.167,302.5 182.833,298.5 183.5,294.5 Z"/></g>
<g><path style="opacity:1" fill="#6d6f70" d="M 188.5,294.5 C 189.492,301.982 189.825,309.648 189.5,317.5C 186.941,317.802 184.607,317.468 182.5,316.5C 184.5,316.5 186.5,316.5 188.5,316.5C 188.5,309.167 188.5,301.833 188.5,294.5 Z"/></g>
<g><path style="opacity:1" fill="#0e0e0e" d="M 215.5,294.5 C 223.554,298.06 225.721,304.06 222,312.5C 219.987,314.248 217.82,315.582 215.5,316.5C 210.167,316.5 204.833,316.5 199.5,316.5C 199.5,309.5 199.5,302.5 199.5,295.5C 204.64,294.512 209.974,294.179 215.5,294.5 Z"/></g>
<g><path style="opacity:1" fill="#0a0a0a" d="M 267.5,294.5 C 272.562,294.274 277.562,294.608 282.5,295.5C 286.091,297.81 287.257,301.144 286,305.5C 285.363,307.303 284.197,308.636 282.5,309.5C 284.226,311.228 285.559,313.228 286.5,315.5C 284.579,316.641 282.579,316.808 280.5,316C 279.512,313.833 278.179,312 276.5,310.5C 274.052,309.527 271.385,309.194 268.5,309.5C 268.5,311.833 268.5,314.167 268.5,316.5C 267.167,316.5 265.833,316.5 264.5,316.5C 264.5,309.5 264.5,302.5 264.5,295.5C 265.791,295.737 266.791,295.404 267.5,294.5 Z"/></g>
<g><path style="opacity:1" fill="#787a7c" d="M 315.5,294.5 C 313.833,294.5 312.167,294.5 310.5,294.5C 310.5,301.833 310.5,309.167 310.5,316.5C 317.5,316.5 324.5,316.5 331.5,316.5C 324.352,317.492 317.019,317.825 309.5,317.5C 309.5,309.5 309.5,301.5 309.5,293.5C 311.735,293.205 313.735,293.539 315.5,294.5 Z"/></g>
<g><path style="opacity:1" fill="#040404" d="M 315.5,294.5 C 315.5,300.5 315.5,306.5 315.5,312.5C 320.833,312.5 326.167,312.5 331.5,312.5C 331.5,313.833 331.5,315.167 331.5,316.5C 324.5,316.5 317.5,316.5 310.5,316.5C 310.5,309.167 310.5,301.833 310.5,294.5C 312.167,294.5 313.833,294.5 315.5,294.5 Z"/></g>
<g><path style="opacity:1" fill="#161616" d="M 365.5,314.5 C 364.448,316.256 362.781,316.923 360.5,316.5C 360.586,315.504 360.252,314.671 359.5,314C 355.167,313.333 350.833,313.333 346.5,314C 345.748,314.671 345.414,315.504 345.5,316.5C 343.219,316.923 341.552,316.256 340.5,314.5C 343.344,308.148 346.177,301.814 349,295.5C 352.547,293.848 355.547,294.515 358,297.5C 360.611,303.184 363.111,308.85 365.5,314.5 Z"/></g>
<g><path style="opacity:1" fill="#5f6162" d="M 380.5,294.5 C 378.833,294.5 377.167,294.5 375.5,294.5C 375.5,301.833 375.5,309.167 375.5,316.5C 377.167,316.5 378.833,316.5 380.5,316.5C 378.735,317.461 376.735,317.795 374.5,317.5C 374.5,309.5 374.5,301.5 374.5,293.5C 376.735,293.205 378.735,293.539 380.5,294.5 Z"/></g>
<g><path style="opacity:1" fill="#0c0c0c" d="M 380.5,294.5 C 384.18,298.183 387.514,302.183 390.5,306.5C 390.821,308.048 391.821,308.715 393.5,308.5C 393.5,303.833 393.5,299.167 393.5,294.5C 395.167,294.5 396.833,294.5 398.5,294.5C 398.5,301.833 398.5,309.167 398.5,316.5C 396.5,316.5 394.5,316.5 392.5,316.5C 389.202,311.868 385.536,307.534 381.5,303.5C 380.508,307.783 380.174,312.116 380.5,316.5C 378.833,316.5 377.167,316.5 375.5,316.5C 375.5,309.167 375.5,301.833 375.5,294.5C 377.167,294.5 378.833,294.5 380.5,294.5 Z"/></g>
<g><path style="opacity:1" fill="#6b6d6e" d="M 398.5,294.5 C 396.833,294.5 395.167,294.5 393.5,294.5C 393.5,299.167 393.5,303.833 393.5,308.5C 391.821,308.715 390.821,308.048 390.5,306.5C 391.117,306.611 391.617,306.944 392,307.5C 392.499,302.845 392.666,298.179 392.5,293.5C 394.735,293.205 396.735,293.539 398.5,294.5 Z"/></g>
<g><path style="opacity:1" fill="#959899" d="M 398.5,294.5 C 399.492,301.982 399.825,309.648 399.5,317.5C 396.941,317.802 394.607,317.468 392.5,316.5C 394.5,316.5 396.5,316.5 398.5,316.5C 398.5,309.167 398.5,301.833 398.5,294.5 Z"/></g>
<g><path style="opacity:1" fill="#0e0e0e" d="M 425.5,294.5 C 433.554,298.06 435.721,304.06 432,312.5C 429.987,314.248 427.82,315.582 425.5,316.5C 420.167,316.5 414.833,316.5 409.5,316.5C 409.5,309.5 409.5,302.5 409.5,295.5C 414.64,294.512 419.974,294.179 425.5,294.5 Z"/></g>
<g><path style="opacity:1" fill="#babebf" d="M 215.5,294.5 C 209.974,294.179 204.64,294.512 199.5,295.5C 198.509,302.313 198.175,309.313 198.5,316.5C 197.345,309.345 197.178,302.012 198,294.5C 203.932,293.175 209.766,293.175 215.5,294.5 Z"/></g>
<g><path style="opacity:1" fill="#babebf" d="M 425.5,294.5 C 419.974,294.179 414.64,294.512 409.5,295.5C 408.509,302.313 408.175,309.313 408.5,316.5C 407.345,309.345 407.178,302.012 408,294.5C 413.932,293.175 419.766,293.175 425.5,294.5 Z"/></g>
<g><path style="opacity:1" fill="#878a8b" d="M 213.5,299.5 C 210.833,299.5 208.167,299.5 205.5,299.5C 205.5,303.5 205.5,307.5 205.5,311.5C 208.167,311.5 210.833,311.5 213.5,311.5C 210.713,312.477 207.713,312.81 204.5,312.5C 204.5,307.833 204.5,303.167 204.5,298.5C 207.713,298.19 210.713,298.523 213.5,299.5 Z"/></g>
<g><path style="opacity:1" fill="#e1e6e8" d="M 213.5,299.5 C 216.766,300.114 218.099,302.114 217.5,305.5C 218.099,308.886 216.766,310.886 213.5,311.5C 210.833,311.5 208.167,311.5 205.5,311.5C 205.5,307.5 205.5,303.5 205.5,299.5C 208.167,299.5 210.833,299.5 213.5,299.5 Z"/></g>
<g><path style="opacity:1" fill="#e3e8ea" d="M 279.5,299.5 C 280.833,301.167 280.833,302.833 279.5,304.5C 276.5,304.5 273.5,304.5 270.5,304.5C 270.5,302.833 270.5,301.167 270.5,299.5C 273.5,299.5 276.5,299.5 279.5,299.5 Z"/></g>
<g><path style="opacity:1" fill="#878a8b" d="M 423.5,299.5 C 420.833,299.5 418.167,299.5 415.5,299.5C 415.5,303.5 415.5,307.5 415.5,311.5C 418.167,311.5 420.833,311.5 423.5,311.5C 420.713,312.477 417.713,312.81 414.5,312.5C 414.5,307.833 414.5,303.167 414.5,298.5C 417.713,298.19 420.713,298.523 423.5,299.5 Z"/></g>
<g><path style="opacity:1" fill="#e1e6e8" d="M 423.5,299.5 C 426.766,300.114 428.099,302.114 427.5,305.5C 428.099,308.886 426.766,310.886 423.5,311.5C 420.833,311.5 418.167,311.5 415.5,311.5C 415.5,307.5 415.5,303.5 415.5,299.5C 418.167,299.5 420.833,299.5 423.5,299.5 Z"/></g>
<g><path style="opacity:1" fill="#bbbfc1" d="M 108.5,301.5 C 111.858,302.527 113.525,304.86 113.5,308.5C 111.167,308.5 108.833,308.5 106.5,308.5C 106.878,306.079 107.545,303.746 108.5,301.5 Z"/></g>
<g><path style="opacity:1" fill="#7b7d7e" d="M 279.5,299.5 C 276.5,299.5 273.5,299.5 270.5,299.5C 270.5,301.167 270.5,302.833 270.5,304.5C 273.5,304.5 276.5,304.5 279.5,304.5C 276.375,305.479 273.042,305.813 269.5,305.5C 269.5,303.167 269.5,300.833 269.5,298.5C 273.042,298.187 276.375,298.521 279.5,299.5 Z"/></g>
<g><path style="opacity:1" fill="#babec0" d="M 351.5,301.5 C 355.071,302.351 356.737,304.684 356.5,308.5C 354.076,308.808 351.743,308.474 349.5,307.5C 350.372,305.55 351.039,303.55 351.5,301.5 Z"/></g>
<g><path style="opacity:1" fill="#434545" d="M 263.5,294.5 C 264.833,294.5 266.167,294.5 267.5,294.5C 266.791,295.404 265.791,295.737 264.5,295.5C 264.5,302.5 264.5,309.5 264.5,316.5C 265.833,316.5 267.167,316.5 268.5,316.5C 268.5,314.167 268.5,311.833 268.5,309.5C 271.385,309.194 274.052,309.527 276.5,310.5C 274.167,310.5 271.833,310.5 269.5,310.5C 269.5,312.833 269.5,315.167 269.5,317.5C 267.5,317.5 265.5,317.5 263.5,317.5C 263.5,309.833 263.5,302.167 263.5,294.5 Z"/></g>
<g><path style="opacity:1" fill="#919495" d="M 72.5,294.5 C 73.4889,299.975 73.8222,305.642 73.5,311.5C 78.6946,311.179 83.6946,311.513 88.5,312.5C 88.1667,312.5 87.8333,312.5 87.5,312.5C 82.5,312.5 77.5,312.5 72.5,312.5C 72.5,306.5 72.5,300.5 72.5,294.5 Z"/></g>
<g><path style="opacity:1" fill="#7e8182" d="M 315.5,294.5 C 316.489,299.975 316.822,305.642 316.5,311.5C 321.695,311.179 326.695,311.513 331.5,312.5C 326.167,312.5 320.833,312.5 315.5,312.5C 315.5,306.5 315.5,300.5 315.5,294.5 Z"/></g>
<g><path style="opacity:1" fill="#5f6162" d="M 72.5,294.5 C 70.8333,294.5 69.1667,294.5 67.5,294.5C 67.5,301.833 67.5,309.167 67.5,316.5C 74.1667,316.5 80.8333,316.5 87.5,316.5C 87.5,315.167 87.5,313.833 87.5,312.5C 87.8333,312.5 88.1667,312.5 88.5,312.5C 88.5,314.167 88.5,315.833 88.5,317.5C 81.1667,317.5 73.8333,317.5 66.5,317.5C 66.5,309.5 66.5,301.5 66.5,293.5C 68.7354,293.205 70.7354,293.539 72.5,294.5 Z"/></g>
<g><path style="opacity:1" fill="#707273" d="M 97.5,314.5 C 98.5521,316.256 100.219,316.923 102.5,316.5C 100.735,317.461 98.7354,317.795 96.5,317.5C 96.2627,316.209 96.596,315.209 97.5,314.5 Z"/></g>
<g><path style="opacity:1" fill="#6e7172" d="M 122.5,314.5 C 123.404,315.209 123.737,316.209 123.5,317.5C 121.265,317.795 119.265,317.461 117.5,316.5C 119.781,316.923 121.448,316.256 122.5,314.5 Z"/></g>
<g><path style="opacity:1" fill="#6d6f70" d="M 150.5,315.5 C 148.366,317.033 145.866,317.7 143,317.5C 140.967,317.494 139.134,317.161 137.5,316.5C 141.881,316.628 146.215,316.295 150.5,315.5 Z"/></g>
<g><path style="opacity:1" fill="#686a6b" d="M 199.5,295.5 C 199.5,302.5 199.5,309.5 199.5,316.5C 204.833,316.5 210.167,316.5 215.5,316.5C 209.833,317.833 204.167,317.833 198.5,316.5C 198.175,309.313 198.509,302.313 199.5,295.5 Z"/></g>
<g><path style="opacity:1" fill="#696c6c" d="M 250.5,303.5 C 251.451,304.919 251.784,306.585 251.5,308.5C 247.5,308.5 243.5,308.5 239.5,308.5C 239.5,309.5 239.5,310.5 239.5,311.5C 244.5,311.5 249.5,311.5 254.5,311.5C 254.5,313.5 254.5,315.5 254.5,317.5C 247.167,317.5 239.833,317.5 232.5,317.5C 232.5,309.5 232.5,301.5 232.5,293.5C 239.833,293.5 247.167,293.5 254.5,293.5C 254.5,295.5 254.5,297.5 254.5,299.5C 249.5,299.5 244.5,299.5 239.5,299.5C 239.5,300.5 239.5,301.5 239.5,302.5C 243.371,302.185 247.038,302.518 250.5,303.5 Z"/></g>
<g><path style="opacity:1" fill="#020202" d="M 250.5,303.5 C 250.5,304.833 250.5,306.167 250.5,307.5C 246.5,307.5 242.5,307.5 238.5,307.5C 238.5,309.167 238.5,310.833 238.5,312.5C 243.5,312.5 248.5,312.5 253.5,312.5C 253.5,313.833 253.5,315.167 253.5,316.5C 246.833,316.5 240.167,316.5 233.5,316.5C 233.5,309.167 233.5,301.833 233.5,294.5C 240.167,294.5 246.833,294.5 253.5,294.5C 253.5,295.833 253.5,297.167 253.5,298.5C 248.5,298.5 243.5,298.5 238.5,298.5C 238.5,300.167 238.5,301.833 238.5,303.5C 242.5,303.5 246.5,303.5 250.5,303.5 Z"/></g>
<g><path style="opacity:1" fill="#747778" d="M 340.5,314.5 C 341.552,316.256 343.219,316.923 345.5,316.5C 343.735,317.461 341.735,317.795 339.5,317.5C 339.263,316.209 339.596,315.209 340.5,314.5 Z"/></g>
<g><path style="opacity:1" fill="#6a6c6d" d="M 365.5,314.5 C 366.404,315.209 366.737,316.209 366.5,317.5C 364.265,317.795 362.265,317.461 360.5,316.5C 362.781,316.923 364.448,316.256 365.5,314.5 Z"/></g>
<g><path style="opacity:1" fill="#686a6b" d="M 409.5,295.5 C 409.5,302.5 409.5,309.5 409.5,316.5C 414.833,316.5 420.167,316.5 425.5,316.5C 419.833,317.833 414.167,317.833 408.5,316.5C 408.175,309.313 408.509,302.313 409.5,295.5 Z"/></g>
<g><path style="opacity:0.78" fill="#aaadae" d="M 320.5,344.5 C 316.833,344.5 313.167,344.5 309.5,344.5C 309.351,343.448 309.517,342.448 310,341.5C 310.85,342.424 311.85,342.424 313,341.5C 313.945,341.905 314.612,342.572 315,343.5C 317.265,340.868 319.099,341.201 320.5,344.5 Z"/></g>
<g><path style="opacity:0.115" fill="#000000" d="M 139.5,344.5 C 140.167,344.5 140.833,344.5 141.5,344.5C 140.833,348.5 140.167,348.5 139.5,344.5 Z"/></g>
<g><path style="opacity:0.171" fill="#070707" d="M 154.5,344.5 C 154.5,345.5 154.5,346.5 154.5,347.5C 150.833,347.5 147.167,347.5 143.5,347.5C 143.5,346.5 143.5,345.5 143.5,344.5C 147.205,344.353 150.872,344.353 154.5,344.5 Z"/></g>
<g><path style="opacity:0.205" fill="#000000" d="M 157.5,344.5 C 158.5,344.5 159.5,344.5 160.5,344.5C 161.167,345.833 161.833,345.833 162.5,344.5C 168.5,344.5 174.5,344.5 180.5,344.5C 180.586,345.496 180.252,346.329 179.5,347C 172.174,347.5 164.841,347.666 157.5,347.5C 157.5,346.5 157.5,345.5 157.5,344.5 Z"/></g>
<g><path style="opacity:0.171" fill="#060606" d="M 201.5,344.5 C 201.5,345.5 201.5,346.5 201.5,347.5C 196.51,347.259 191.677,347.259 187,347.5C 184.725,347.722 183.559,346.722 183.5,344.5C 189.735,343.677 195.735,343.677 201.5,344.5 Z"/></g>
<g><path style="opacity:0.228" fill="#040404" d="M 212.5,344.5 C 212.5,345.5 212.5,346.5 212.5,347.5C 209.167,347.5 205.833,347.5 202.5,347.5C 202.5,346.5 202.5,345.5 202.5,344.5C 205.982,344.172 209.315,344.172 212.5,344.5 Z"/></g>
<g><path style="opacity:0.11" fill="#000000" d="M 216.5,344.5 C 217.833,344.5 219.167,344.5 220.5,344.5C 220.5,345.5 220.5,346.5 220.5,347.5C 218.381,347.532 217.048,346.532 216.5,344.5 Z"/></g>
<g><path style="opacity:0.223" fill="#000000" d="M 221.5,344.5 C 227.167,344.5 232.833,344.5 238.5,344.5C 238.5,345.5 238.5,346.5 238.5,347.5C 232.833,347.5 227.167,347.5 221.5,347.5C 221.5,346.5 221.5,345.5 221.5,344.5 Z"/></g>
<g><path style="opacity:0.23" fill="#000000" d="M 242.5,344.5 C 243.5,344.5 244.5,344.5 245.5,344.5C 246.167,345.833 246.833,345.833 247.5,344.5C 248.5,344.5 249.5,344.5 250.5,344.5C 251.167,345.833 251.833,345.833 252.5,344.5C 254.5,344.5 256.5,344.5 258.5,344.5C 258.5,345.5 258.5,346.5 258.5,347.5C 253.319,347.069 247.986,347.069 242.5,347.5C 242.5,346.5 242.5,345.5 242.5,344.5 Z"/></g>
<g><path style="opacity:0.08" fill="#000000" d="M 259.5,344.5 C 260.5,344.5 261.5,344.5 262.5,344.5C 262.5,345.5 262.5,346.5 262.5,347.5C 261.5,347.5 260.5,347.5 259.5,347.5C 259.5,346.5 259.5,345.5 259.5,344.5 Z"/></g>
<g><path style="opacity:0.138" fill="#090909" d="M 269.5,344.5 C 269.5,345.5 269.5,346.5 269.5,347.5C 267.833,347.5 266.167,347.5 264.5,347.5C 264.5,346.5 264.5,345.5 264.5,344.5C 266.167,343.167 267.833,343.167 269.5,344.5 Z"/></g>
<g><path style="opacity:0.244" fill="#141515" d="M 280.5,344.5 C 280.5,345.5 280.5,346.5 280.5,347.5C 277.167,347.5 273.833,347.5 270.5,347.5C 270.5,346.5 270.5,345.5 270.5,344.5C 271.404,343.791 271.737,342.791 271.5,341.5C 274.598,341.413 274.932,341.913 272.5,343C 275.014,344.252 277.68,344.752 280.5,344.5 Z"/></g>
<g><path style="opacity:0.205" fill="#121212" d="M 302.5,344.5 C 303.091,345.151 303.757,345.818 304.5,346.5C 302,346.833 299.5,347.167 297,347.5C 293.965,347.391 291.131,346.724 288.5,345.5C 287.476,346.853 286.143,347.52 284.5,347.5C 284.5,346.5 284.5,345.5 284.5,344.5C 285.404,343.791 285.737,342.791 285.5,341.5C 288.598,341.413 288.932,341.913 286.5,343C 287.609,343.638 288.775,344.138 290,344.5C 294.118,343.977 298.284,343.977 302.5,344.5 Z"/></g>
<g><path style="opacity:0.192" fill="#020202" d="M 331.5,344.5 C 331.5,345.5 331.5,346.5 331.5,347.5C 323.143,347.122 315.143,347.122 307.5,347.5C 307.5,346.5 307.5,345.5 307.5,344.5C 308.167,344.5 308.833,344.5 309.5,344.5C 313.167,344.5 316.833,344.5 320.5,344.5C 324.316,344.213 327.983,344.213 331.5,344.5 Z"/></g>
<g><path style="opacity:0.179" fill="#0e0e0e" d="M 361.5,344.5 C 361.5,345.5 361.5,346.5 361.5,347.5C 352.475,347.832 343.475,347.498 334.5,346.5C 334.863,345.817 335.196,345.15 335.5,344.5C 340.075,343.879 344.742,343.879 349.5,344.5C 349.833,345.833 350.167,345.833 350.5,344.5C 352.833,344.5 355.167,344.5 357.5,344.5C 357.5,343.5 357.5,342.5 357.5,341.5C 358.552,341.351 359.552,341.517 360.5,342C 358.258,343.007 358.592,343.841 361.5,344.5 Z"/></g>
</svg>
