<?xml version="1.0" standalone="no"?>
<!DOCTYPE svg PUBLIC "-//W3C//DTD SVG 20010904//EN"
 "http://www.w3.org/TR/2001/REC-SVG-20010904/DTD/svg10.dtd">
<svg version="1.0" xmlns="http://www.w3.org/2000/svg"
 width="225.000000pt" height="550.000000pt" viewBox="0 0 225.000000 550.000000"
 preserveAspectRatio="xMidYMid meet">

<g transform="translate(0.000000,550.000000) scale(0.100000,-0.100000)"
fill="#000000" stroke="none">
<path d="M1420 5494 c-36 -2 -222 -8 -415 -14 -640 -20 -791 -32 -802 -67 -2
-6 11 -16 29 -22 44 -16 274 -41 371 -41 l78 0 -6 -82 c-4 -46 -8 -89 -11 -96
-3 -11 -24 -12 -96 -7 -133 10 -342 41 -368 55 -18 10 -24 9 -31 -1 -13 -21
-3 -26 61 -33 90 -10 89 -10 74 -59 -7 -23 -17 -60 -22 -82 -18 -72 -89 -250
-137 -343 -25 -50 -45 -99 -43 -109 5 -25 110 182 143 283 15 43 34 92 42 108
9 16 19 59 23 94 12 92 31 106 24 16 -10 -116 -63 -251 -183 -466 -32 -60 -56
-108 -51 -108 15 0 45 50 113 185 91 181 116 247 132 344 8 46 19 88 24 95 7
8 48 9 154 2 l144 -9 9 -36 c9 -35 10 -36 62 -39 l52 -3 0 39 0 39 83 6 c45 4
112 7 148 7 66 0 67 0 73 -31 10 -54 7 -120 -14 -239 -24 -142 -26 -325 -4
-540 8 -85 16 -156 18 -157 2 -2 6 27 9 64 6 58 10 71 34 91 108 88 111 91
123 142 7 30 15 175 19 358 l6 307 122 3 122 3 3 -28 c3 -27 5 -28 58 -28 l55
0 5 34 5 35 123 21 122 22 26 -86 c67 -227 164 -450 229 -526 l26 -30 -6 51
c-3 29 -27 100 -56 165 -48 107 -132 347 -145 414 -5 30 -5 30 68 50 47 13 74
26 76 36 2 13 -11 11 -80 -12 -73 -25 -367 -84 -375 -76 -1 2 -6 42 -9 89 l-7
86 89 11 c152 19 307 43 349 56 39 11 40 11 17 24 -13 7 -65 16 -115 21 -108
10 -473 19 -567 14z m559 -59 c-7 -6 -309 -36 -366 -35 -27 0 -158 -5 -293
-10 -278 -12 -330 -13 -595 -11 -174 1 -360 9 -353 16 8 8 218 28 353 35 167
8 1261 13 1254 5z m-361 -53 c9 -7 12 -41 10 -138 l-3 -129 -37 -3 -38 -3 0
74 c0 41 -3 101 -6 135 -6 53 -5 61 12 65 30 8 48 7 62 -1z m-827 -17 c3 -2 0
-44 -7 -92 -7 -49 -13 -109 -13 -135 -1 -43 -4 -48 -27 -54 -43 -11 -49 6 -47
132 3 134 10 154 57 154 18 0 35 -2 37 -5z m734 -68 c4 -34 5 -75 3 -90 l-3
-29 -204 1 c-112 0 -205 2 -207 4 -8 7 -24 159 -18 168 3 5 99 9 214 9 l208 0
7 -63z m-449 -32 c7 -44 11 -81 10 -82 0 -1 -66 -5 -145 -9 l-144 -7 7 77 c10
115 0 107 140 104 l121 -3 11 -80z m880 -82 c23 -102 84 -285 126 -378 27 -60
56 -126 64 -145 26 -63 -11 -5 -67 104 -41 80 -159 404 -159 438 0 21 30 5 36
-19z m-692 -130 c-3 -54 -9 -207 -13 -340 -8 -271 -2 -253 -92 -318 l-48 -34
-6 53 c-4 29 -4 167 0 307 3 140 7 293 8 342 l2 87 78 0 77 0 -6 -97z"/>
<path d="M1174 5295 c-24 -36 -6 -75 34 -75 35 0 52 16 52 52 0 49 -59 65 -86
23z m46 -25 c0 -5 -4 -10 -10 -10 -5 0 -10 5 -10 10 0 6 5 10 10 10 6 0 10 -4
10 -10z"/>
<path d="M877 4893 c-7 -12 -42 -296 -67 -548 -12 -115 -25 -238 -31 -273 -5
-35 -18 -168 -29 -295 -11 -128 -31 -340 -44 -472 -31 -306 -39 -411 -32 -405
3 3 15 96 26 205 11 110 32 279 45 375 13 96 34 245 45 330 12 85 41 294 66
463 36 254 44 333 44 455 0 133 -8 189 -23 165z"/>
<path d="M1950 4368 c0 -3 30 -62 67 -130 36 -67 97 -184 135 -258 52 -102 68
-127 68 -105 0 30 -99 236 -178 372 -40 69 -91 136 -92 121z"/>
<path d="M1086 4044 c-4 -9 -11 -82 -16 -163 -6 -80 -19 -270 -30 -421 -30
-408 -38 -533 -50 -765 -5 -115 -16 -322 -25 -460 -31 -525 -56 -1246 -55
-1632 0 -260 -3 -394 -10 -398 -42 -26 -157 -47 -280 -52 -194 -7 -384 29
-523 99 -32 16 -64 27 -70 25 -23 -9 160 -87 264 -113 149 -38 377 -45 499
-16 47 11 93 24 103 27 14 6 17 1 17 -31 0 -36 1 -37 17 -21 15 15 17 59 19
444 6 851 19 1323 49 1713 8 107 20 310 26 450 13 312 26 409 23 170 -4 -243
9 -121 35 340 26 439 57 659 76 525 4 -28 20 -117 37 -200 l29 -150 5 -470 c3
-315 10 -511 19 -595 24 -205 60 -806 70 -1155 3 -104 10 -266 15 -360 5 -93
12 -282 15 -418 l7 -248 -31 16 c-18 9 -31 11 -31 5 0 -6 16 -18 35 -27 29
-14 34 -22 37 -56 4 -56 28 -62 28 -7 0 35 3 41 18 36 63 -19 123 -27 242 -32
121 -6 149 -3 264 20 159 33 247 57 241 66 -2 4 13 15 35 25 40 18 67 41 58
50 -2 3 -37 -11 -78 -31 -195 -93 -441 -131 -646 -99 -60 9 -115 20 -122 24
-9 5 -15 41 -18 122 -2 63 -9 204 -14 314 -6 110 -15 313 -20 450 -6 138 -14
315 -20 395 -5 79 -14 255 -20 390 -5 135 -19 317 -31 405 -18 138 -22 235
-29 715 -6 463 -10 565 -24 615 -9 33 -29 137 -46 230 -38 215 -52 265 -75
265 -7 0 -16 -7 -19 -16z"/>
<path d="M1923 4035 c3 -11 15 -51 26 -90 11 -38 40 -151 65 -251 55 -218 133
-449 172 -507 l29 -42 3 90 3 90 -55 115 c-30 63 -73 167 -94 230 -66 191
-175 458 -149 365z"/>
<path d="M25 1765 c28 -135 189 -343 330 -426 46 -28 57 -18 11 10 -19 12 -82
72 -141 132 -91 96 -113 125 -156 213 -27 55 -47 88 -44 71z"/>
<path d="M12 1596 c4 -46 18 -91 52 -167 60 -135 153 -316 182 -355 33 -45 81
-64 158 -64 59 0 69 3 98 30 l33 29 -97 1 c-86 0 -100 2 -122 23 -66 60 -237
375 -271 500 -23 86 -39 88 -33 3z"/>
<path d="M2212 1375 c-36 -76 -121 -179 -194 -233 -26 -20 -46 -38 -44 -40 11
-10 69 34 138 106 57 58 86 98 108 147 17 38 29 73 27 79 -2 5 -18 -21 -35
-59z"/>
<path d="M2231 1305 c-30 -105 -168 -352 -210 -374 -11 -6 -47 -11 -80 -11
-34 0 -61 -4 -61 -8 0 -5 15 -17 34 -27 40 -22 106 -16 144 12 30 22 91 130
150 266 35 78 42 107 40 145 l-3 47 -14 -50z"/>
</g>
</svg>
