<?xml version="1.0" standalone="no"?>
<!DOCTYPE svg PUBLIC "-//W3C//DTD SVG 20010904//EN"
 "http://www.w3.org/TR/2001/REC-SVG-20010904/DTD/svg10.dtd">
<svg version="1.0" xmlns="http://www.w3.org/2000/svg"
 width="524.000000pt" height="550.000000pt" viewBox="0 0 524.000000 550.000000"
 preserveAspectRatio="xMidYMid meet">

<g transform="translate(0.000000,550.000000) scale(0.100000,-0.100000)"
fill="#000000" stroke="none">
<path d="M1503 5490 c-53 -12 -221 -132 -334 -238 -121 -113 -163 -144 -274
-199 -87 -44 -133 -74 -393 -264 -95 -69 -210 -148 -255 -174 -130 -77 -155
-100 -192 -179 -49 -108 -57 -145 -44 -207 10 -44 21 -62 63 -104 51 -49 52
-53 85 -180 96 -371 160 -504 397 -825 55 -74 134 -184 175 -245 104 -154 494
-560 692 -719 85 -68 172 -149 217 -201 80 -93 248 -252 375 -354 104 -83 199
-147 318 -210 139 -75 236 -151 363 -284 61 -64 123 -121 138 -127 15 -5 72
-9 128 -9 85 1 104 -1 114 -16 7 -9 63 -101 124 -203 l112 -187 192 -121 c105
-67 248 -157 317 -200 104 -64 129 -84 138 -111 28 -77 96 -81 216 -13 91 53
115 76 463 460 38 41 49 88 30 123 -7 14 -38 47 -68 73 -118 99 -426 392 -489
464 -37 41 -128 152 -203 245 -139 175 -259 299 -338 352 -25 17 -97 65 -161
106 -155 101 -192 145 -286 336 -76 155 -78 157 -187 266 -61 61 -158 147
-216 193 -92 72 -331 249 -364 270 -19 12 -438 479 -473 528 -30 42 -57 129
-46 147 3 4 12 2 21 -6 31 -27 167 -104 347 -197 99 -52 208 -111 242 -132
243 -148 468 -215 753 -225 176 -6 217 -19 251 -78 14 -23 35 -39 66 -51 41
-16 55 -16 132 -5 l86 12 22 -28 c44 -54 82 -167 112 -333 39 -210 62 -277
120 -353 74 -97 97 -137 164 -290 89 -204 243 -494 266 -502 31 -10 148 -8
183 3 18 6 59 13 91 17 121 14 279 73 400 151 148 95 158 119 99 232 -45 88
-187 437 -225 557 -31 94 -41 152 -61 341 -24 224 -40 280 -124 444 -42 80
-111 217 -155 305 -79 159 -80 161 -191 270 -180 178 -323 265 -521 315 -67
18 -189 62 -292 106 -98 42 -297 122 -443 177 -275 103 -502 202 -597 259 -31
18 -85 67 -122 108 -121 137 -155 166 -287 240 -71 40 -184 109 -252 153 -106
69 -126 86 -147 127 -13 26 -57 82 -98 124 -80 81 -92 86 -174 66z m140 -117
c26 -25 57 -59 67 -73 l19 -27 -37 -30 c-60 -47 -60 -47 -103 -9 -22 20 -60
46 -85 58 l-44 22 52 53 c29 29 59 53 68 53 8 0 37 -21 63 -47z m-144 -122
c47 -25 161 -145 161 -172 0 -46 -32 -32 -118 53 -111 110 -125 117 -164 88
l-30 -22 12 22 c11 21 61 49 88 50 7 0 30 -9 51 -19z m319 -79 c31 -21 110
-71 175 -112 65 -40 116 -78 114 -84 -5 -18 -98 -64 -162 -81 -81 -21 -182
-20 -222 3 -47 25 -118 86 -144 124 -19 28 -20 30 -3 17 39 -34 92 -31 116 5
13 19 9 60 -8 84 -9 13 -14 24 -13 26 2 1 19 14 37 29 19 15 38 27 43 27 6 0
36 -17 67 -38z m-348 -27 l45 -46 -113 -111 c-63 -62 -143 -149 -178 -193 -76
-96 -112 -125 -165 -132 -50 -7 -83 14 -112 73 l-22 45 22 37 c15 26 44 51
102 84 108 62 173 118 222 190 22 32 44 56 49 53 5 -3 27 6 47 20 21 14 42 25
48 25 6 0 31 -20 55 -45z m106 -204 c86 -84 138 -112 220 -119 108 -8 297 49
348 107 11 11 24 21 30 21 34 0 132 -79 210 -170 l86 -100 -82 -1 c-104 -1
-133 -9 -133 -34 0 -19 10 -20 155 -26 l155 -6 120 -58 c121 -58 408 -174 610
-247 61 -21 193 -75 294 -120 122 -53 222 -90 300 -109 64 -16 149 -45 189
-65 99 -48 250 -164 343 -261 67 -70 86 -100 159 -244 46 -90 104 -202 130
-249 90 -163 119 -259 140 -470 17 -171 36 -276 71 -380 40 -120 192 -489 224
-544 14 -24 25 -50 25 -59 0 -32 -173 -143 -290 -186 -88 -32 -174 -51 -230
-51 -49 0 -56 3 -90 39 -21 21 -40 52 -44 67 -20 79 -98 249 -190 414 -192
342 -211 397 -226 619 -13 185 -34 259 -91 325 l-41 46 85 0 c63 0 88 4 97 15
10 12 10 18 -1 31 -13 16 -21 16 -259 1 -20 -2 -52 -13 -71 -25 -62 -38 -87
-30 -139 39 -60 82 -121 134 -178 154 -26 9 -110 22 -187 31 -238 24 -444 72
-631 146 -119 47 -544 254 -638 311 -76 47 -152 63 -229 49 -57 -11 -60 -10
-105 20 l-47 31 27 29 c39 42 53 99 39 166 -26 129 -283 529 -425 661 -14 14
-26 28 -26 33 0 6 218 238 224 238 1 0 33 -31 72 -69z m-676 -240 c10 -22 36
-53 57 -71 l38 -31 -41 -37 c-23 -20 -87 -63 -144 -95 l-102 -59 -25 24 c-31
29 -43 50 -58 108 -7 25 -16 52 -19 61 -4 10 -2 19 6 22 7 3 67 31 133 61 66
31 123 56 127 56 4 0 17 -18 28 -39z m435 -51 c136 -155 317 -443 351 -558 19
-64 12 -111 -20 -149 -21 -24 -27 -26 -48 -16 -14 6 -65 69 -114 140 -49 70
-162 220 -252 332 -90 112 -162 204 -160 205 51 23 86 48 116 82 20 23 42 42
49 41 6 -1 41 -36 78 -77z m-748 -123 c13 -54 29 -81 78 -135 18 -21 35 -46
37 -57 3 -18 -3 -20 -42 -20 -44 0 -45 1 -51 37 -5 35 -60 118 -117 180 -19
21 -22 28 -11 32 8 2 21 7 29 10 8 3 26 4 40 3 21 -2 27 -10 37 -50z m641
-160 c151 -189 342 -455 342 -476 0 -6 37 -35 83 -65 117 -76 121 -82 114
-160 -5 -54 -2 -77 19 -138 14 -40 28 -102 32 -138 5 -49 11 -66 24 -68 27 -5
40 32 30 88 -5 28 -8 50 -6 50 2 0 101 -109 220 -242 202 -225 227 -249 348
-336 201 -145 361 -276 468 -382 92 -93 100 -104 164 -236 100 -209 196 -365
257 -420 59 -53 89 -69 111 -61 27 11 18 32 -32 70 -100 76 -82 76 38 1 162
-102 254 -191 445 -429 83 -104 178 -219 211 -254 64 -70 413 -396 482 -450
26 -22 42 -43 42 -56 0 -12 -21 -44 -47 -73 -27 -28 -113 -121 -193 -206 -80
-86 -151 -156 -159 -156 -24 0 -92 64 -186 173 l-90 105 -85 27 c-47 14 -126
46 -175 70 -77 37 -103 56 -170 127 -64 67 -167 198 -208 264 -5 8 3 11 26 10
26 -1 33 3 35 21 3 18 -4 24 -35 32 -55 16 -122 13 -177 -5 -68 -23 -95 -9
-162 87 -70 99 -110 134 -308 269 -160 108 -204 143 -676 540 -134 113 -300
251 -369 306 -153 123 -460 434 -557 564 -251 336 -568 819 -497 758 28 -25
58 -22 82 8 25 32 26 52 5 82 -10 15 -25 22 -49 22 -28 0 -37 -6 -50 -29 -8
-17 -12 -38 -9 -48 5 -16 4 -16 -11 2 -39 48 -39 49 48 108 200 136 258 220
265 383 5 110 -8 171 -49 232 -16 23 -29 44 -29 46 0 1 40 26 89 55 49 29 108
73 132 97 34 35 46 41 55 32 7 -7 80 -98 162 -201z m-735 100 c73 -93 84 -114
71 -135 -15 -25 -276 -154 -357 -176 l-68 -19 -26 24 c-54 50 -70 136 -30 164
23 17 348 202 357 204 3 0 27 -27 53 -62z m298 -195 c32 -64 32 -205 1 -274
-11 -27 -23 -48 -26 -48 -9 0 -76 115 -76 131 0 49 -78 67 -105 25 -9 -13 -50
-45 -93 -71 l-77 -48 -57 63 c-32 35 -58 65 -57 69 0 3 69 40 152 81 141 70
155 75 207 72 46 -3 59 0 74 17 11 12 16 27 12 37 -14 36 23 -8 45 -54z m-517
-217 c19 -25 23 -35 13 -35 -8 0 -20 -6 -26 -14 -9 -11 -8 -18 4 -30 20 -20
29 -20 49 0 9 8 20 12 26 9 16 -10 12 -22 -10 -28 -26 -7 -26 -44 -1 -52 13
-4 25 -24 35 -58 8 -29 29 -73 45 -99 28 -43 29 -47 11 -53 -43 -14 -22 -63
22 -52 19 5 27 -1 45 -33 14 -23 19 -41 13 -45 -15 -9 -12 -35 5 -40 8 -3 22
-7 30 -10 13 -4 12 -8 -5 -25 -17 -17 -19 -24 -9 -36 7 -8 23 -14 36 -12 17 2
29 -5 42 -26 18 -28 18 -29 -1 -48 -16 -16 -17 -22 -7 -35 8 -9 23 -13 38 -10
22 4 31 -3 59 -44 27 -41 30 -52 20 -68 -15 -24 6 -55 34 -48 18 5 58 -38 58
-62 0 -6 18 -29 39 -50 30 -30 39 -47 38 -68 -2 -22 3 -29 21 -31 16 -3 28
-15 38 -38 8 -19 18 -34 23 -34 5 0 21 -19 36 -41 19 -30 24 -44 15 -49 -7 -4
-10 -16 -8 -26 3 -14 12 -19 33 -18 35 1 47 -13 34 -37 -11 -22 16 -52 40 -44
11 3 33 -11 65 -44 44 -45 46 -49 26 -54 -14 -4 -21 -12 -18 -24 4 -22 47 -30
59 -11 6 9 41 -19 131 -109 100 -100 119 -124 110 -136 -7 -8 -10 -22 -6 -31
7 -17 49 -22 59 -6 7 12 148 -97 161 -125 5 -11 18 -21 29 -23 11 -2 34 -18
52 -34 27 -26 30 -33 20 -50 -17 -27 16 -53 46 -37 30 16 74 -20 91 -73 3 -11
15 -18 30 -18 13 0 38 -12 56 -26 24 -21 28 -29 19 -40 -18 -22 8 -46 42 -39
19 4 31 1 41 -12 7 -10 25 -24 40 -32 39 -20 86 -71 66 -71 -9 0 -21 -6 -27
-14 -9 -11 -8 -18 5 -30 20 -20 35 -17 50 12 10 21 11 21 27 4 10 -10 14 -22
11 -25 -12 -11 19 -39 37 -34 10 3 23 -1 30 -9 9 -11 8 -14 -4 -14 -8 0 -20
-7 -27 -16 -11 -12 -10 -18 3 -31 22 -22 47 -9 47 23 l0 27 25 -23 c14 -13 25
-32 25 -42 0 -10 8 -19 18 -19 9 -1 22 -2 27 -3 6 0 31 -15 56 -33 38 -26 46
-37 42 -56 -6 -29 19 -42 48 -26 15 8 26 5 49 -11 30 -22 30 -22 10 -38 -27
-22 -17 -52 16 -52 30 0 41 24 23 47 -12 15 -11 14 13 -1 15 -10 34 -28 43
-42 8 -13 23 -24 31 -24 9 0 29 -10 46 -21 29 -21 29 -21 9 -36 -26 -18 -27
-39 -3 -52 14 -7 25 -6 39 4 24 17 33 11 33 -22 0 -12 4 -23 10 -23 11 0 50
-40 50 -52 0 -4 -18 -8 -41 -8 -32 0 -42 4 -46 19 -7 27 -32 35 -53 16 -30
-28 -44 -8 -15 22 12 12 13 18 4 29 -13 16 -45 19 -54 4 -8 -13 -19 -6 -45 30
-14 19 -16 28 -7 24 18 -6 41 21 33 41 -7 20 -52 19 -60 -1 -5 -12 -13 -9 -45
18 -25 21 -36 37 -30 42 28 29 -15 72 -47 45 -14 -12 -28 -6 -30 12 -1 5 -2
14 -3 19 0 6 -14 10 -30 10 -33 0 -51 18 -31 30 17 11 8 44 -13 48 -10 2 -28
-4 -39 -14 -19 -18 -20 -18 -47 15 -20 24 -33 32 -45 28 -10 -4 -32 0 -49 9
-43 22 -43 22 -22 38 24 18 13 46 -19 46 -14 0 -29 -7 -34 -16 -8 -15 -11 -15
-35 1 -15 9 -24 21 -21 27 9 15 -17 38 -43 38 -19 0 -23 4 -18 19 7 24 -17 43
-47 36 -18 -4 -39 9 -100 61 -74 62 -91 84 -68 84 6 0 10 11 10 25 0 19 -5 25
-23 25 -13 0 -28 -5 -34 -11 -8 -8 -15 -3 -25 17 -7 16 -22 30 -33 32 -31 6
-40 19 -24 38 11 14 11 18 -6 30 -10 8 -27 12 -36 9 -11 -4 -27 7 -48 33 -17
22 -28 42 -25 45 3 3 3 15 -1 27 -5 16 -13 20 -28 17 -26 -7 -103 55 -92 73
12 20 -16 41 -46 35 -24 -6 -31 -2 -41 19 -6 15 -21 29 -34 32 -34 9 -71 51
-56 66 33 33 -6 72 -40 41 -18 -16 -20 -15 -53 17 -40 39 -42 46 -15 53 25 6
26 33 2 46 -14 7 -25 6 -39 -4 -18 -13 -23 -11 -51 18 -16 18 -32 41 -34 52
-2 11 -12 21 -23 23 -11 2 -34 18 -52 34 -25 24 -31 37 -26 58 5 30 -15 45
-48 35 -21 -7 -35 11 -14 19 8 3 15 14 15 25 0 23 -37 38 -53 22 -19 -19 -26
-12 -29 27 -3 31 -6 37 -25 35 -16 -2 -30 8 -48 35 -14 20 -57 82 -96 137 -61
87 -68 100 -50 103 20 3 35 27 25 43 -8 13 -51 11 -60 -2 -8 -14 -15 -5 -114
132 -80 112 -130 194 -130 214 0 8 -10 25 -21 36 -20 20 -20 23 -5 31 9 5 16
15 16 23 0 16 -34 38 -43 28 -13 -12 -19 28 -7 42 16 19 6 45 -18 45 -15 0
-24 16 -41 73 -25 86 -26 93 -5 101 24 9 13 49 -15 56 -31 7 -48 61 -32 97 9
19 7 25 -9 35 -29 19 -25 38 9 38 21 0 36 -9 55 -35z m322 -36 c14 -16 26 -19
51 -14 29 5 34 2 58 -39 20 -35 24 -49 16 -64 -15 -28 -82 -86 -162 -139 l-71
-47 -19 23 c-11 13 -26 49 -34 80 -8 31 -19 69 -24 84 -9 27 -7 30 72 82 45
29 85 54 88 54 3 1 14 -8 25 -20z m1316 -267 c-4 -28 14 -53 34 -45 8 3 14 16
14 29 0 13 3 24 8 24 14 0 77 -43 90 -61 7 -11 24 -19 38 -19 13 0 24 -4 24
-10 0 -5 -5 -10 -11 -10 -6 0 -9 -12 -7 -27 4 -39 43 -40 43 -1 -1 26 0 26 28
11 22 -11 26 -18 18 -26 -15 -15 -14 -42 2 -56 18 -14 37 5 37 36 0 23 1 23
29 8 16 -8 32 -24 36 -35 5 -15 14 -19 38 -17 19 1 32 -3 33 -10 1 -7 2 -20 3
-28 1 -16 41 -21 41 -5 0 17 26 11 64 -15 20 -14 43 -25 51 -25 28 0 65 -24
65 -42 0 -23 25 -34 43 -20 7 6 23 9 35 5 20 -5 21 -7 6 -17 -23 -17 -15 -61
11 -61 16 0 20 6 18 33 -1 27 2 32 15 27 10 -4 31 -12 47 -17 17 -6 38 -17 47
-25 9 -8 21 -12 27 -9 6 4 28 2 50 -4 33 -9 40 -15 43 -38 4 -33 29 -36 43 -4
6 12 16 20 23 17 8 -3 20 -5 28 -5 12 0 12 -4 2 -20 -10 -15 -10 -25 -2 -38
19 -29 39 -21 39 16 0 32 1 33 29 28 16 -3 35 -14 42 -24 11 -14 16 -15 32 -5
21 12 144 4 261 -17 63 -12 66 -13 66 -48 0 -31 32 -43 50 -18 10 13 18 8 59
-42 60 -74 59 -96 -7 -100 -68 -4 -98 16 -90 62 6 38 -9 55 -33 35 -17 -14
-39 1 -39 28 0 9 -8 21 -18 27 -14 9 -21 7 -31 -7 -20 -26 -43 -12 -38 22 2
16 -1 32 -7 36 -19 11 -43 -16 -38 -42 4 -23 3 -23 -85 -23 -51 0 -87 4 -84 9
10 16 -5 41 -24 41 -10 0 -22 -9 -25 -20 -5 -15 -15 -20 -41 -20 -23 0 -38 6
-46 20 -13 21 -48 28 -48 10 0 -5 -7 -10 -15 -10 -28 0 -210 62 -283 96 -58
28 -72 38 -68 52 4 10 -1 27 -9 38 -15 19 -15 19 -35 -4 l-20 -24 -10 27 c-9
23 -14 26 -36 21 -24 -6 -26 -5 -21 14 12 45 -22 69 -47 34 -11 -14 -15 -14
-48 2 -20 9 -41 28 -47 41 -9 20 -17 24 -36 19 -18 -5 -55 10 -149 61 -107 57
-122 68 -110 80 17 18 18 24 0 48 -12 16 -16 17 -30 6 -9 -7 -16 -20 -16 -27
0 -19 -7 -18 -46 7 -19 11 -34 27 -34 34 0 7 -3 21 -6 30 -5 13 -2 16 12 13
13 -2 18 -10 16 -26z m2020 -728 c36 -25 43 -36 39 -58 -5 -25 11 -56 29 -56
15 0 20 -10 25 -44 4 -25 2 -52 -4 -63 -7 -15 -7 -25 3 -39 16 -23 29 -161 15
-169 -15 -10 -11 -65 5 -65 21 0 25 -31 8 -58 -12 -18 -12 -25 -2 -38 7 -8 19
-13 25 -10 14 5 35 -34 35 -64 0 -11 9 -29 20 -40 11 -11 20 -24 20 -29 0 -5
-9 -11 -20 -14 -24 -6 -26 -39 -4 -58 14 -11 18 -11 29 4 18 25 25 21 23 -15
-2 -25 1 -33 17 -36 31 -7 49 -42 21 -42 -21 0 -29 -17 -22 -46 8 -29 36 -32
43 -4 9 34 23 22 23 -20 0 -37 6 -45 32 -41 12 1 90 -152 92 -180 1 -15 10
-37 20 -48 16 -18 17 -25 8 -47 -14 -29 0 -66 21 -58 18 6 61 -89 52 -116 -3
-11 -14 -20 -24 -20 -26 0 -31 10 -18 31 14 23 -2 55 -27 53 -21 -2 -49 50
-50 96 -1 27 -5 35 -19 34 -13 -1 -28 18 -53 69 -31 61 -34 71 -20 79 34 19 9
76 -25 58 -14 -8 -20 -3 -32 28 -52 123 -66 153 -96 207 -19 33 -47 74 -63 91
-24 26 -27 32 -14 37 9 4 16 18 16 32 0 32 -28 45 -45 22 -11 -15 -15 -9 -34
43 -20 55 -21 62 -6 76 23 23 15 58 -13 62 -24 4 -25 11 -7 54 4 10 -1 24 -14
37 -24 24 -29 63 -8 55 20 -7 40 21 32 46 -7 22 -41 28 -48 8 -2 -7 -10 7 -16
32 -6 25 -19 63 -29 85 -9 22 -17 58 -17 80 0 33 -4 40 -20 41 -39 3 -39 6 0
24 52 24 53 24 97 -6z m-668 -2085 c-2 -4 8 -19 23 -33 17 -16 27 -36 28 -53
0 -21 5 -29 22 -31 22 -3 53 -39 66 -75 4 -9 18 -22 32 -27 27 -10 31 -20 14
-37 -7 -7 -9 -19 -5 -28 5 -13 14 -16 39 -12 26 4 39 -2 71 -30 37 -34 140
-87 217 -112 30 -10 35 -15 32 -35 -3 -15 1 -25 11 -29 22 -9 46 2 46 20 0 10
6 13 16 9 9 -3 20 -6 25 -6 4 0 6 -7 3 -15 -8 -19 13 -45 36 -45 10 0 45 -31
79 -68 55 -63 59 -70 44 -85 -9 -8 -13 -23 -10 -31 7 -19 38 -21 55 -4 10 10
17 8 33 -9 l21 -21 -26 -17 c-23 -15 -31 -16 -51 -5 -29 15 -55 7 -55 -17 0
-15 -2 -16 -10 -3 -5 8 -10 25 -10 37 0 14 -13 29 -37 44 -21 13 -44 31 -51
41 -7 10 -20 18 -29 18 -24 0 -203 112 -203 127 0 7 -9 13 -20 13 -15 0 -173
92 -199 116 -2 2 2 10 9 19 10 12 10 18 0 30 -16 19 -49 19 -56 1 -3 -8 -12
-12 -20 -9 -13 5 -13 8 1 23 15 16 15 19 0 34 -19 19 -27 20 -42 5 -6 -6 -16
-8 -23 -4 -8 5 -6 11 7 20 14 11 16 18 7 32 -6 10 -21 18 -33 18 -12 0 -29 12
-41 29 -17 27 -17 31 -3 41 26 19 12 50 -22 49 -36 -1 -50 15 -27 32 23 17 4
49 -28 49 -16 0 -31 12 -46 37 -22 35 -23 36 -3 41 14 4 19 1 17 -10 -4 -20
25 -38 47 -29 13 4 16 14 12 34 l-5 27 23 -29 c13 -17 22 -33 19 -37z"/>
<path d="M1021 4856 c-12 -13 -24 -39 -28 -59 -4 -29 -1 -40 20 -61 28 -28 81
-35 117 -16 22 12 44 72 35 100 -18 57 -104 79 -144 36z"/>
<path d="M1456 4948 c-22 -31 -20 -64 4 -88 36 -36 84 -20 103 33 7 19 -8 56
-27 69 -23 16 -65 8 -80 -14z"/>
<path d="M2140 4910 c-39 -39 -14 -110 39 -110 35 0 61 28 61 67 0 56 -60 83
-100 43z"/>
<path d="M856 4409 c-32 -25 -35 -70 -6 -99 39 -39 100 -12 100 43 0 38 -7 50
-37 66 -28 14 -26 15 -57 -10z"/>
<path d="M291 3836 c-17 -20 -2 -46 25 -46 29 0 41 24 24 45 -16 19 -34 19
-49 1z"/>
<path d="M314 3745 c-9 -22 9 -37 37 -33 16 2 24 10 24 23 0 26 -52 35 -61 10z"/>
<path d="M422 3601 c-19 -11 -11 -45 11 -49 28 -6 49 16 36 39 -10 20 -26 24
-47 10z"/>
<path d="M417 3503 c-15 -14 -6 -42 15 -49 27 -8 54 22 37 43 -12 14 -41 18
-52 6z"/>
<path d="M462 3421 c-20 -12 -10 -45 14 -49 29 -4 51 23 34 43 -14 17 -29 19
-48 6z"/>
<path d="M535 3316 c-25 -18 -13 -46 20 -46 30 0 43 24 25 45 -15 18 -21 19
-45 1z"/>
<path d="M590 3255 c-16 -19 -6 -45 18 -45 29 0 48 26 32 45 -16 19 -34 19
-50 0z"/>
<path d="M706 3087 c-23 -17 -11 -47 20 -47 29 0 41 24 24 45 -15 18 -21 19
-44 2z"/>
<path d="M782 3021 c-23 -14 -10 -46 18 -46 20 0 25 5 25 25 0 26 -20 36 -43
21z"/>
<path d="M811 2916 c-15 -18 -4 -46 19 -46 28 0 45 27 30 45 -16 19 -34 19
-49 1z"/>
<path d="M914 2845 c-10 -25 22 -53 44 -39 9 6 17 20 17 30 0 25 -52 33 -61 9z"/>
<path d="M1100 2625 c-17 -20 -4 -35 31 -35 22 0 29 5 29 19 0 17 -18 31 -40
31 -4 0 -13 -7 -20 -15z"/>
<path d="M1273 2434 c-9 -24 24 -47 49 -33 27 15 18 43 -15 47 -18 2 -29 -2
-34 -14z"/>
<path d="M1386 2323 c-7 -16 16 -43 35 -43 14 0 31 30 25 45 -8 21 -52 19 -60
-2z"/>
<path d="M1572 2171 c-23 -14 -10 -46 18 -46 20 0 25 5 25 25 0 26 -20 36 -43
21z"/>
<path d="M1700 2055 c-16 -19 -6 -45 18 -45 29 0 48 26 32 45 -16 19 -34 19
-50 0z"/>
<path d="M1840 1935 c-7 -8 -10 -22 -6 -30 7 -20 55 -20 62 0 7 17 -12 45 -31
45 -7 0 -18 -7 -25 -15z"/>
<path d="M1937 1844 c-12 -13 -8 -42 8 -48 25 -9 46 5 43 28 -3 21 -37 34 -51
20z"/>
<path d="M1974 1756 c-10 -26 4 -48 28 -44 17 2 23 10 23 28 0 18 -6 26 -23
28 -13 2 -25 -3 -28 -12z"/>
<path d="M2110 1705 c-11 -13 -11 -19 2 -32 22 -22 60 -8 56 20 -4 27 -40 34
-58 12z"/>
<path d="M2733 3334 c-7 -18 6 -45 25 -52 15 -5 33 33 26 52 -8 21 -43 21 -51
0z"/>
<path d="M2847 3313 c-13 -12 -7 -54 9 -60 23 -8 38 12 30 41 -6 25 -25 34
-39 19z"/>
<path d="M3224 3246 c-10 -26 0 -51 21 -51 16 0 20 7 20 30 0 33 -30 49 -41
21z"/>
<path d="M3564 3126 c-10 -26 0 -51 21 -51 16 0 20 7 20 30 0 33 -30 49 -41
21z"/>
<path d="M3894 2956 c-10 -26 0 -51 21 -51 16 0 20 7 20 30 0 33 -30 49 -41
21z"/>
<path d="M3950 2865 c-17 -20 -8 -50 15 -50 14 0 21 8 23 26 4 31 -20 45 -38
24z"/>
<path d="M3992 2688 c-16 -16 -15 -43 1 -57 16 -13 37 4 37 30 0 25 -24 41
-38 27z"/>
<path d="M4321 1901 c-7 -5 -11 -19 -9 -32 4 -31 42 -33 46 -3 4 25 -19 46
-37 35z"/>
<path d="M3314 775 c-10 -25 22 -53 44 -39 9 6 17 20 17 30 0 25 -52 33 -61 9z"/>
<path d="M3520 585 c-16 -19 3 -45 32 -45 24 0 34 26 18 45 -16 19 -34 19 -50
0z"/>
<path d="M3584 526 c-10 -26 4 -48 28 -44 17 2 23 10 23 28 0 18 -6 26 -23 28
-13 2 -25 -3 -28 -12z"/>
<path d="M3696 473 c-7 -16 16 -43 35 -43 14 0 31 30 25 45 -8 21 -52 19 -60
-2z"/>
<path d="M3801 382 c-8 -15 -7 -23 4 -32 23 -19 50 -8 50 20 0 32 -39 41 -54
12z"/>
<path d="M3917 363 c-14 -14 -6 -42 14 -48 26 -9 52 15 43 38 -6 17 -44 23
-57 10z"/>
<path d="M3963 274 c-9 -24 24 -47 49 -33 27 15 18 43 -15 47 -18 2 -29 -2
-34 -14z"/>
</g>
</svg>
